# xmcd
#
# Track frame offsets:
#	150
#	16245
#	29450
#	43254
#	63388
#	81673
#	98204
#	120913
#	135796
#	156179
#	175820
#	191059
#	204416
#	217319
#	231367
#	248239
#	260086
#
# Disc length: 3836 seconds
# Revision: 0
# Processed by: cddbd v1.5.2PL0 Copyright (c) Steve Scherf et al.
# Submitted via: dBpowerAMP V12.0
#
DISCID=f50efa11
DTITLE=Various Artist - Gaston Couté vol 2
DYEAR=2008
DGENRE=Chanson
TTITLE0=Monique Morelli - Va danser
TTITLE1=Le p'tit Creme - En revenant du bal
TTITLE2=Edith Piaf - La Julie jolie
TTITLE3=Claude Antonini - Sur le pressoir
TTITLE4=Pierrot Noir - Les deux chemineux
TTITLE5=Claude Antonini - Ces choses-la
TTITLE6=Le p'tit Creme - La paysanne
TTITLE7=Monique Morelli - Jour de lessive
TTITLE8=Claude Antonini - Feu de vigne
TTITLE9=Pierrot Noir - Chanson du dimanche
TTITLE10=Monique Morelli - La cigarette
TTITLE11=Monique Morelli - Nos vingt ans
TTITLE12=Pierrot Noir - Le champs de naviots
TTITLE13=Claude Antonini - Automne
TTITLE14=Pierrot Noir - Cantique paien
TTITLE15=Monique Morelli - A l'auberge de la route
TTITLE16=Le p'tit Creme - Le gas qu'a perdu l'esprit
EXTD=
EXTT0=
EXTT1=
EXTT2=
EXTT3=
EXTT4=
EXTT5=
EXTT6=
EXTT7=
EXTT8=
EXTT9=
EXTT10=
EXTT11=
EXTT12=
EXTT13=
EXTT14=
EXTT15=
EXTT16=
PLAYORDER=
